<svg>

  <symbol id="bars" xmlns="http://www.w3.org/2000/svg" height="100%" width="100%" viewBox="0 0 448 512">
    <path d="M0 96C0 78.3 14.3 64 32 64H416c17.7 0 32 14.3 32 32s-14.3 32-32 32H32C14.3 128 0 113.7 0 96zM0 256c0-17.7 14.3-32 32-32H416c17.7 0 32 14.3 32 32s-14.3 32-32 32H32c-17.7 0-32-14.3-32-32zM448 416c0 17.7-14.3 32-32 32H32c-17.7 0-32-14.3-32-32s14.3-32 32-32H416c17.7 0 32 14.3 32 32z"/>
  </symbol>

  <symbol
      id="arrow_down"
      version="1.1"
      xmlns="http://www.w3.org/2000/svg"
      xmlns:xlink="http://www.w3.org/1999/xlink"
      x="0px"
      y="0px"
      viewBox="0 0 12 6.9"
      enable-background="new 0 0 12 6.9"
      xml:space="preserve"><path d="M0.2,0.1C0.3,0,0.4,0,0.5,0l0.8,0c0.1,0,0.2,0,0.3,0.1c0.1,0.1,0.1,0.2,0.1,0.3v0.8c0,0.1,0,0.2,0.1,0.3
    C2,1.7,2.1,1.7,2.2,1.7H3c0.1,0,0.2,0.1,0.3,0.1C3.5,2,3.5,2.1,3.5,2.2V3c0,0.1,0,0.2,0.1,0.3c0.1,0.1,0.2,0.1,0.3,0.1h0.8
    c0.1,0,0.2,0.1,0.3,0.1c0.1,0.1,0.1,0.2,0.1,0.3v0.8c0,0.1,0.1,0.2,0.1,0.3c0.1,0.1,0.2,0.1,0.3,0.1h0.8c0.1,0,0.2,0,0.3-0.1
    c0.1-0.1,0.1-0.2,0.1-0.3V3.9c0-0.1,0.1-0.2,0.1-0.3c0.1-0.1,0.2-0.1,0.3-0.1h0.8c0.1,0,0.2,0,0.3-0.1C8.6,3.2,8.7,3.1,8.7,3V2.2
    c0-0.1,0.1-0.2,0.1-0.3C8.9,1.8,9,1.7,9.1,1.7h0.8c0.1,0,0.2,0,0.3-0.1c0.1-0.1,0.1-0.2,0.1-0.3V0.4c0-0.1,0-0.2,0.1-0.3
    C10.6,0,10.7,0,10.8,0l0.8,0c0.1,0,0.2,0,0.3,0.1C12,0.2,12,0.3,12,0.4v0.8c0,0.1-0.1,0.2-0.1,0.3c-0.1,0.1-0.2,0.1-0.3,0.1h-0.8
    c-0.1,0-0.2,0.1-0.3,0.1c-0.1,0.1-0.1,0.2-0.1,0.3V3c0,0.1-0.1,0.2-0.1,0.3C10.1,3.4,10,3.4,9.9,3.4H9.1c-0.1,0-0.2,0.1-0.3,0.1
    C8.7,3.7,8.6,3.8,8.6,3.9v0.8c0,0.1,0,0.2-0.1,0.3C8.4,5.1,8.3,5.2,8.2,5.2H7.3C7.2,5.2,7.1,5.2,7,5.3C6.9,5.4,6.9,5.5,6.9,5.6v0.8
    c0,0.1,0,0.2-0.1,0.3C6.7,6.8,6.6,6.9,6.4,6.9H5.6c-0.1,0-0.2-0.1-0.3-0.1C5.2,6.6,5.2,6.5,5.2,6.4V5.6c0-0.1,0-0.2-0.1-0.3
    C4.9,5.2,4.8,5.2,4.7,5.2H3.9c-0.1,0-0.2,0-0.3-0.1C3.5,4.9,3.4,4.8,3.4,4.7V3.9c0-0.1,0-0.2-0.1-0.3C3.2,3.5,3.1,3.4,3,3.4H2.2
    c-0.1,0-0.2,0-0.3-0.1C1.8,3.2,1.7,3.1,1.7,3V2.2c0-0.1,0-0.2-0.1-0.3C1.5,1.8,1.4,1.7,1.3,1.7H0.4c-0.1,0-0.2,0-0.3-0.1
    C0,1.5,0,1.4,0,1.3l0-0.8C0,0.3,0,0.2,0.2,0.1L0.2,0.1z"
      ></path></symbol>

    <symbol id="xmark" xmlns="http://www.w3.org/2000/svg" height="100%" width="100%" viewBox="0 0 384 512">
      <path d="M342.6 150.6c12.5-12.5 12.5-32.8 0-45.3s-32.8-12.5-45.3 0L192 210.7 86.6 105.4c-12.5-12.5-32.8-12.5-45.3 0s-12.5 32.8 0 45.3L146.7 256 41.4 361.4c-12.5 12.5-12.5 32.8 0 45.3s32.8 12.5 45.3 0L192 301.3 297.4 406.6c12.5 12.5 32.8 12.5 45.3 0s12.5-32.8 0-45.3L237.3 256 342.6 150.6z"/>
    </symbol>

</svg>