<svg>

  <symbol id="bars" xmlns="http://www.w3.org/2000/svg" height="100%" width="100%" viewBox="0 0 448 512">
    <path d="M0 96C0 78.3 14.3 64 32 64H416c17.7 0 32 14.3 32 32s-14.3 32-32 32H32C14.3 128 0 113.7 0 96zM0 256c0-17.7 14.3-32 32-32H416c17.7 0 32 14.3 32 32s-14.3 32-32 32H32c-17.7 0-32-14.3-32-32zM448 416c0 17.7-14.3 32-32 32H32c-17.7 0-32-14.3-32-32s14.3-32 32-32H416c17.7 0 32 14.3 32 32z"/>
  </symbol>

  <symbol
      id="arrow_down"
      version="1.1"
      xmlns="http://www.w3.org/2000/svg"
      xmlns:xlink="http://www.w3.org/1999/xlink"
      x="0px"
      y="0px"
      viewBox="0 0 12 6.9"
      enable-background="new 0 0 12 6.9"
      xml:space="preserve"><path d="M0.2,0.1C0.3,0,0.4,0,0.5,0l0.8,0c0.1,0,0.2,0,0.3,0.1c0.1,0.1,0.1,0.2,0.1,0.3v0.8c0,0.1,0,0.2,0.1,0.3
    C2,1.7,2.1,1.7,2.2,1.7H3c0.1,0,0.2,0.1,0.3,0.1C3.5,2,3.5,2.1,3.5,2.2V3c0,0.1,0,0.2,0.1,0.3c0.1,0.1,0.2,0.1,0.3,0.1h0.8
    c0.1,0,0.2,0.1,0.3,0.1c0.1,0.1,0.1,0.2,0.1,0.3v0.8c0,0.1,0.1,0.2,0.1,0.3c0.1,0.1,0.2,0.1,0.3,0.1h0.8c0.1,0,0.2,0,0.3-0.1
    c0.1-0.1,0.1-0.2,0.1-0.3V3.9c0-0.1,0.1-0.2,0.1-0.3c0.1-0.1,0.2-0.1,0.3-0.1h0.8c0.1,0,0.2,0,0.3-0.1C8.6,3.2,8.7,3.1,8.7,3V2.2
    c0-0.1,0.1-0.2,0.1-0.3C8.9,1.8,9,1.7,9.1,1.7h0.8c0.1,0,0.2,0,0.3-0.1c0.1-0.1,0.1-0.2,0.1-0.3V0.4c0-0.1,0-0.2,0.1-0.3
    C10.6,0,10.7,0,10.8,0l0.8,0c0.1,0,0.2,0,0.3,0.1C12,0.2,12,0.3,12,0.4v0.8c0,0.1-0.1,0.2-0.1,0.3c-0.1,0.1-0.2,0.1-0.3,0.1h-0.8
    c-0.1,0-0.2,0.1-0.3,0.1c-0.1,0.1-0.1,0.2-0.1,0.3V3c0,0.1-0.1,0.2-0.1,0.3C10.1,3.4,10,3.4,9.9,3.4H9.1c-0.1,0-0.2,0.1-0.3,0.1
    C8.7,3.7,8.6,3.8,8.6,3.9v0.8c0,0.1,0,0.2-0.1,0.3C8.4,5.1,8.3,5.2,8.2,5.2H7.3C7.2,5.2,7.1,5.2,7,5.3C6.9,5.4,6.9,5.5,6.9,5.6v0.8
    c0,0.1,0,0.2-0.1,0.3C6.7,6.8,6.6,6.9,6.4,6.9H5.6c-0.1,0-0.2-0.1-0.3-0.1C5.2,6.6,5.2,6.5,5.2,6.4V5.6c0-0.1,0-0.2-0.1-0.3
    C4.9,5.2,4.8,5.2,4.7,5.2H3.9c-0.1,0-0.2,0-0.3-0.1C3.5,4.9,3.4,4.8,3.4,4.7V3.9c0-0.1,0-0.2-0.1-0.3C3.2,3.5,3.1,3.4,3,3.4H2.2
    c-0.1,0-0.2,0-0.3-0.1C1.8,3.2,1.7,3.1,1.7,3V2.2c0-0.1,0-0.2-0.1-0.3C1.5,1.8,1.4,1.7,1.3,1.7H0.4c-0.1,0-0.2,0-0.3-0.1
    C0,1.5,0,1.4,0,1.3l0-0.8C0,0.3,0,0.2,0.2,0.1L0.2,0.1z"
      ></path></symbol>

    <symbol id="xmark" xmlns="http://www.w3.org/2000/svg" height="100%" width="100%" viewBox="0 0 384 512">
      <path d="M342.6 150.6c12.5-12.5 12.5-32.8 0-45.3s-32.8-12.5-45.3 0L192 210.7 86.6 105.4c-12.5-12.5-32.8-12.5-45.3 0s-12.5 32.8 0 45.3L146.7 256 41.4 361.4c-12.5 12.5-12.5 32.8 0 45.3s32.8 12.5 45.3 0L192 301.3 297.4 406.6c12.5 12.5 32.8 12.5 45.3 0s12.5-32.8 0-45.3L237.3 256 342.6 150.6z"/>
    </symbol>

    <symbol id="whatsapp" xmlns="http://www.w3.org/2000/svg" height="100%" width="100%" viewBox="0 0 448 512">
      <path d="M380.9 97.1C339 55.1 283.2 32 223.9 32c-122.4 0-222 99.6-222 222 0 39.1 10.2 77.3 29.6 111L0 480l117.7-30.9c32.4 17.7 68.9 27 106.1 27h.1c122.3 0 224.1-99.6 224.1-222 0-59.3-25.2-115-67.1-157zm-157 341.6c-33.2 0-65.7-8.9-94-25.7l-6.7-4-69.8 18.3L72 359.2l-4.4-7c-18.5-29.4-28.2-63.3-28.2-98.2 0-101.7 82.8-184.5 184.6-184.5 49.3 0 95.6 19.2 130.4 54.1 34.8 34.9 56.2 81.2 56.1 130.5 0 101.8-84.9 184.6-186.6 184.6zm101.2-138.2c-5.5-2.8-32.8-16.2-37.9-18-5.1-1.9-8.8-2.8-12.5 2.8-3.7 5.6-14.3 18-17.6 21.8-3.2 3.7-6.5 4.2-12 1.4-32.6-16.3-54-29.1-75.5-66-5.7-9.8 5.7-9.1 16.3-30.3 1.8-3.7 .9-6.9-.5-9.7-1.4-2.8-12.5-30.1-17.1-41.2-4.5-10.8-9.1-9.3-12.5-9.5-3.2-.2-6.9-.2-10.6-.2-3.7 0-9.7 1.4-14.8 6.9-5.1 5.6-19.4 19-19.4 46.3 0 27.3 19.9 53.7 22.6 57.4 2.8 3.7 39.1 59.7 94.8 83.8 35.2 15.2 49 16.5 66.6 13.9 10.7-1.6 32.8-13.4 37.4-26.4 4.6-13 4.6-24.1 3.2-26.4-1.3-2.5-5-3.9-10.5-6.6z"/>
    </symbol>

    <symbol id="mail" xmlns="http://www.w3.org/2000/svg" height="100%" width="100%" viewBox="0 0 512 512">
      <path d="M64 112c-8.8 0-16 7.2-16 16v22.1L220.5 291.7c20.7 17 50.4 17 71.1 0L464 150.1V128c0-8.8-7.2-16-16-16H64zM48 212.2V384c0 8.8 7.2 16 16 16H448c8.8 0 16-7.2 16-16V212.2L322 328.8c-38.4 31.5-93.7 31.5-132 0L48 212.2zM0 128C0 92.7 28.7 64 64 64H448c35.3 0 64 28.7 64 64V384c0 35.3-28.7 64-64 64H64c-35.3 0-64-28.7-64-64V128z"/>
    </symbol>

    <symbol id="phone" xmlns="http://www.w3.org/2000/svg" height="100%" width="100%" viewBox="0 0 512 512">
      <path d="M164.9 24.6c-7.7-18.6-28-28.5-47.4-23.2l-88 24C12.1 30.2 0 46 0 64C0 311.4 200.6 512 448 512c18 0 33.8-12.1 38.6-29.5l24-88c5.3-19.4-4.6-39.7-23.2-47.4l-96-40c-16.3-6.8-35.2-2.1-46.3 11.6L304.7 368C234.3 334.7 177.3 277.7 144 207.3L193.3 167c13.7-11.2 18.4-30 11.6-46.3l-40-96z"/>
    </symbol>

    <symbol id="location" xmlns="http://www.w3.org/2000/svg" height="100%" width="100%" viewBox="0 0 384 512">
      <path d="M215.7 499.2C267 435 384 279.4 384 192C384 86 298 0 192 0S0 86 0 192c0 87.4 117 243 168.3 307.2c12.3 15.3 35.1 15.3 47.4 0zM192 128a64 64 0 1 1 0 128 64 64 0 1 1 0-128z"/>
    </symbol>

</svg>